<mxfile host="app.diagrams.net" modified="2023-08-27T16:23:57.374Z" agent="Mozilla/5.0 (Windows NT 10.0; Win64; x64) AppleWebKit/537.36 (KHTML, like Gecko) Chrome/112.0.0.0 Safari/537.36 Edg/112.0.1722.39" version="21.2.9" etag="5rFdpm3mfX6ABnEznvXl" type="github">
  <diagram name="Page-1" id="Jeaw1IErlOP3u4DfBLaw">
    <mxGraphModel>
      <root>
        <mxCell id="0" />
        <mxCell id="1" parent="0" />
      </root>
    </mxGraphModel>
  </diagram>
</mxfile>
